<svg width="93" height="31" viewBox="0 0 93 31" fill="none" xmlns="http://www.w3.org/2000/svg">
<path fill-rule="evenodd" clip-rule="evenodd" d="M15.3514 0C23.8297 -3.70601e-07 30.7028 6.87306 30.7028 15.3514C30.7028 23.8297 23.8297 30.7028 15.3514 30.7028C6.87306 30.7028 3.70608e-07 23.8297 0 15.3514C-3.70608e-07 6.87306 6.87306 3.70601e-07 15.3514 0ZM15.4744 28.7529C16.6877 28.7286 17.5425 27.8821 17.5425 26.8406C17.5425 25.7839 16.7098 25.0009 15.6438 25.0009C15.1074 25.0009 14.864 25.0009 14.621 24.9908C14.4221 24.9825 14.2235 24.9674 13.8646 24.9401L13.8492 24.939L13.6216 24.9216C12.5739 24.8424 11.6888 24.0687 11.6888 23.0088C11.6888 21.9521 12.5524 21.0961 13.6216 21.0961H15.613C16.679 21.0961 17.5425 20.24 17.5425 19.1832C17.5425 18.1234 16.679 17.2674 15.613 17.2674H9.06903C7.99992 17.2674 7.1364 16.4113 7.1364 15.3545C7.1364 14.2947 7.99992 13.4354 9.06903 13.4354H22.048C23.114 13.4354 23.9775 12.5794 23.9775 11.5227C23.9775 10.466 23.114 9.60993 22.048 9.60993H13.6216C12.5524 9.60993 11.6888 8.75389 11.6888 7.69088C11.6888 6.63414 12.6713 5.85424 13.6216 5.77809C14.5717 5.70196 14.6203 5.70196 15.613 5.70196C16.6055 5.70196 17.5425 4.92204 17.5425 3.86218C17.5425 2.8208 16.8401 1.97431 15.471 1.94993C15.4312 1.94958 15.3913 1.94941 15.3514 1.94941C7.94968 1.94941 1.94938 7.9497 1.94938 15.3514C1.94938 22.7458 7.93773 28.7415 15.3293 28.7535H15.3735C15.4072 28.7534 15.4408 28.7532 15.4744 28.7529ZM45.2682 28.8386V2.73249H49.5846V6.07877C51.0086 3.54413 54.001 1.973 57.3851 1.973C62.9296 1.973 66.9522 5.01323 66.9522 12.8711V28.8386H62.5381V13.5308C62.5381 8.66558 60.233 6.28282 56.4062 6.28282C52.0899 6.28282 49.6848 9.32531 49.6848 13.6828V28.8386H45.2682ZM70.4349 2.73449V28.8383H74.8492V20.3728L79.0675 16.2171L87.8493 28.8383H93L82.0601 13.0749L92.4126 2.73222H86.7212L74.8492 14.6959V2.73449H70.4349ZM36.3675 28.8385V2.68484H40.8529V28.8385H36.3675Z" fill="url(#paint0_linear_2852_45782)"/>
<defs>
<linearGradient id="paint0_linear_2852_45782" x1="0" y1="15.3514" x2="29.3614" y2="15.3514" gradientUnits="userSpaceOnUse">
<stop stop-color="#B99FFF"/>
<stop offset="1" stop-color="#674DBC"/>
</linearGradient>
</defs>
</svg>
