<?xml version="1.0" encoding="UTF-8"?><svg version="1.1" width="619px" height="73px" viewBox="0 0 619.0 73.0" xmlns="http://www.w3.org/2000/svg" xmlns:xlink="http://www.w3.org/1999/xlink"><defs><clipPath id="i0"><path d="M85.6009885,0 C94.8009885,0 102.300988,7.5 102.300988,16.7 L102.300988,18.7 C102.300988,27.7930233 94.974393,35.2253515 85.9212201,35.3969669 L85.6009885,35.4 L16.7009885,35.4 C7.60796524,35.4 0.174671313,28.0734045 0.00303346412,19.0202316 L0,18.7 L0,16.7 C-0.0990115001,7.5 7.4009885,0 16.7009885,0 L85.6009885,0 Z"></path></clipPath><clipPath id="i1"><path d="M3.798,0 C3.934,0 4.062,0.067 4.14,0.18 L10.39,9.175 C11.237,10.428 11.863,11.349 12.417,12.307 L12.49,12.307 C13.006,11.386 13.632,10.316 14.48,9.027 L20.178,0.191 C20.255,0.072 20.387,0 20.529,0 L24.076,0 C24.23,0 24.354,0.125 24.354,0.278 L24.354,24.997 C24.354,25.15 24.23,25.275 24.076,25.275 L20.174,25.275 C20.021,25.275 19.896,25.15 19.896,24.997 L19.896,10.574 C19.896,9.58 19.896,8.327 19.97,7.369 L19.896,7.369 C19.565,8.069 18.68,9.433 18.238,10.096 L13.528,18.393 C13.479,18.479 13.386,18.533 13.286,18.533 L11.577,18.533 C11.481,18.533 11.391,18.482 11.34,18.4 L6.116,9.912 C5.6,9.175 4.937,8.327 4.458,7.406 L4.384,7.406 C4.41175,8.1245 4.4186875,9.0089375 4.42042187,9.76357813 L4.421,24.997 C4.421,25.15 4.297,25.275 4.143,25.275 L0.278,25.275 C0.124,25.275 0,25.15 0,24.997 L0,0.278 C0,0.125 0.124,0 0.278,0 L3.798,0 Z"></path></clipPath><clipPath id="i2"><path d="M8.696,0 C13.891,0 17.428,3.869 17.428,9.101 C17.428,14.332 13.891,18.238 8.696,18.238 C3.501,18.238 0,14.332 0,9.101 C0,3.869 3.501,0 8.696,0 Z M8.696,3.538 C5.933,3.538 4.496,5.895 4.496,9.101 C4.496,12.343 5.933,14.701 8.696,14.701 C11.459,14.701 12.896,12.343 12.896,9.101 C12.896,5.895 11.459,3.538 8.696,3.538 Z"></path></clipPath><clipPath id="i3"><path d="M4.03155363,0 C4.20755363,0 4.36355363,0.11 4.42355363,0.275 L8.63455363,11.864 L8.70855363,11.864 L12.8465536,0.277 C12.9055536,0.111 13.0635536,0 13.2395536,0 L16.9545536,0 C17.1525536,0 17.2865536,0.2 17.2125536,0.383 L10.3985536,17.277 C10.3345536,17.435 10.1815536,17.538 10.0105536,17.538 L7.25755363,17.538 C7.08855363,17.538 6.93555363,17.436 6.87155363,17.277 L0.0205536262,0.383 C-0.0534463738,0.2 0.0815536262,0 0.278553626,0 L4.03155363,0 Z"></path></clipPath><clipPath id="i4"><path d="M4.385,0.278359275 L4.385,4.41935927 L9.275,4.41935927 C9.463,4.41935927 9.597,4.60035927 9.541,4.78035927 L8.676,7.55335927 C8.622,7.72735927 8.46,7.84635927 8.278,7.84635927 L4.385,7.84635927 L4.385,15.6783593 C4.385,17.2993593 4.937,17.8883593 6.08,17.8883593 C6.983,17.8883593 7.831,17.5773593 8.472,17.2033593 C8.614,17.1203593 8.795,17.1833593 8.861,17.3343593 L9.962,19.8423593 C10.018,19.9693593 9.976,20.1193593 9.858,20.1903593 C8.59,20.9613593 6.617,21.4253593 4.974,21.4253593 C1.879,21.4253593 0,19.6563593 0,16.7463593 L0,1.50835927 C0,1.32335927 0.122,1.16035927 0.3,1.10735927 L4.028,0.0113592747 C4.206,-0.0406407253 4.385,0.0923592747 4.385,0.278359275 Z"></path></clipPath><clipPath id="i5"><path d="M7.848,0 C12.748,0 15.585,3.537 15.585,9.321 L15.585,10.075 C15.585,10.229 15.46,10.353 15.307,10.353 L4.421,10.353 C4.532,13.043 6.448,14.774 9.358,14.774 C10.969,14.774 12.294,14.359 13.479,13.738 C13.623,13.663 13.798,13.722 13.864,13.87 L14.97,16.389 C15.026,16.519 14.979,16.673 14.856,16.745 C13.061,17.795 10.972,18.237 8.917,18.237 C2.579,18.237 0,13.89 0,9.174 C0,3.942 2.874,0 7.848,0 Z M7.774,3.353 C5.6,3.353 4.421,5.194 4.385,7.295 L11.127,7.295 C11.09,5.306 10.095,3.353 7.774,3.353 Z"></path></clipPath><clipPath id="i6"><path d="M9.211,0 C11.235,0 12.748,0.511 13.69,1.056 C13.817,1.131 13.89,1.268 13.89,1.414 L13.89,4.376 C13.89,4.593 13.651,4.728 13.468,4.612 C12.366,3.912 11.154,3.537 9.653,3.537 C6.411,3.537 4.495,5.969 4.495,9.174 C4.495,12.748 6.448,14.7 9.432,14.7 C10.935,14.7 12.089,14.257 13.218,13.664 C13.362,13.589 13.54,13.649 13.604,13.799 L14.682,16.326 C14.735,16.451 14.695,16.597 14.581,16.671 C13.178,17.565 11.092,18.237 8.806,18.237 C3.132,18.237 0,14.332 0,9.284 C0,3.868 4.016,0 9.211,0 Z"></path></clipPath><clipPath id="i7"><path d="M4.028,0.0116831426 C4.206,-0.0413168574 4.385,0.0926831426 4.385,0.278683143 L4.385,10.0866831 C5.969,8.75968314 7.958,7.72868314 10.169,7.72868314 C10.182,7.72868314 10.194,7.72968314 10.206,7.72968314 L10.4842832,7.73185519 C14.4121493,7.82252147 15.733,9.84536496 15.733,12.3256831 L15.733,24.9036831 C15.733,25.0566831 15.608,25.1816831 15.455,25.1816831 L11.626,25.1816831 C11.473,25.1816831 11.348,25.0566831 11.348,24.9036831 L11.3483785,15.2688885 L11.3504557,14.9526928 C11.3647869,13.0188763 11.359075,11.4080581 8.659,11.5606831 C7.187,11.6436831 5.674,12.3336831 4.385,13.4026831 L4.385,24.9036831 C4.385,25.0566831 4.26,25.1816831 4.107,25.1816831 L0.279,25.1816831 C0.125,25.1816831 0,25.0566831 0,24.9036831 L0,1.50868314 C0,1.32368314 0.123,1.16068314 0.3,1.10868314 Z"></path></clipPath><clipPath id="i8"><path d="M4.063,0.0117440424 C4.241,-0.0412559576 4.421,0.0917440424 4.421,0.277744042 L4.421,18.380744 C4.421,18.533744 4.296,18.658744 4.143,18.658744 L0.278,18.658744 C0.125,18.658744 0,18.533744 0,18.380744 L0,1.54174404 C0,1.35774404 0.121,1.19474404 0.297,1.14274404 Z"></path></clipPath><clipPath id="i9"><path d="M15.2349,0 L15.2349,14.5107 L0,14.5107 L0,0 L15.2349,0 Z"></path></clipPath><clipPath id="i10"><path d="M7.618,0 C11.818,0 15.235,3.256 15.235,7.256 C15.235,11.256 11.818,14.511 7.618,14.511 C3.417,14.511 0,11.256 0,7.256 C0,3.256 3.417,0 7.618,0 Z M7.618,0.834 C3.899,0.834 0.874,3.715 0.874,7.256 C0.874,10.797 3.899,13.677 7.618,13.677 C11.336,13.677 14.36,10.797 14.36,7.256 C14.36,3.715 11.336,0.834 7.618,0.834 Z"></path></clipPath><clipPath id="i11"><path d="M3.548,0 C4.561,0 5.374,0.295 5.893,0.793 C6.294,1.178 6.53,1.731 6.53,2.354 L6.53,2.378 C6.53,3.679 5.611,4.437 4.325,4.676 L6.376,7.211 C6.47,7.312 6.53,7.414 6.53,7.539 C6.53,7.776 6.294,7.98 6.058,7.98 C5.869,7.98 5.728,7.878 5.622,7.742 L3.299,4.845 L0.931,4.845 L0.931,7.527 C0.931,7.776 0.719,7.98 0.46,7.98 C0.213,7.98 0,7.776 0,7.527 L0,0.453 C0,0.204 0.213,0 0.46,0 Z M3.477,0.827 L0.931,0.827 L0.931,4.041 L3.465,4.041 C4.703,4.041 5.587,3.431 5.587,2.412 L5.587,2.389 C5.587,1.416 4.808,0.827 3.477,0.827 Z"></path></clipPath><clipPath id="i12"><path d="M21.92,13.75 L21.733,19.101 L23.608,19.101 L23.5,22.201 L0,22.201 L0.108,19.101 L1.983,19.101 L2.17,13.75 L21.92,13.75 Z M18.616,16.7 L16.142,16.7 L16.058,19.101 L18.533,19.101 L18.616,16.7 Z M13.167,16.7 L10.717,16.7 L10.633,19.101 L13.083,19.101 L13.167,16.7 Z M7.741,16.7 L5.267,16.7 L5.183,19.101 L7.658,19.101 L7.741,16.7 Z M23.125,0 L22.666,13.151 L19.516,13.151 L19.597,10.826 L14.647,10.826 C14.457,11.476 14.173,12.25 13.791,13.151 L10.166,13.151 C10.219,13.068 10.361,12.809 10.593,12.375 L1.418,12.375 L1.846,0.125 L11.096,0.125 L10.673,12.25 C11.243,11.167 11.652,10.08 11.899,8.988 C12.145,7.897 12.293,6.651 12.342,5.25 L12.525,0 L23.125,0 Z M7.81,7.576 L4.636,7.576 L4.571,9.425 L7.746,9.425 L7.81,7.576 Z M19.739,6.776 L15.388,6.776 C15.359,7.125 15.299,7.651 15.208,8.351 L19.684,8.351 L19.739,6.776 Z M7.968,3.076 L4.793,3.076 L4.727,4.951 L7.902,4.951 L7.968,3.076 Z M19.88,2.725 L15.58,2.725 L15.525,4.3 L19.825,4.3 L19.88,2.725 Z"></path></clipPath><clipPath id="i13"><path d="M6.385,0 L6.264,3.476 L8.264,3.476 L8.154,6.626 L6.154,6.626 L6.022,10.425 L8.291,9.876 L8.17,13.351 L5.9,13.901 L5.595,22.626 L0.421,22.626 L0.527,19.601 L2.451,19.601 L2.622,14.701 L0,15.35 L0.121,11.876 L2.744,11.226 L2.904,6.626 L0.554,6.626 L0.664,3.476 L3.014,3.476 L3.136,0 L6.385,0 Z M23.418,0.501 L23.304,3.751 L16.63,3.751 C16.492,5.784 15.904,7.601 14.864,9.201 L22.739,9.201 L22.288,22.125 L10.913,22.125 L11.242,12.701 C10.374,13.218 9.485,13.642 8.573,13.976 L8.697,10.401 C9.947,9.935 11.001,9.097 11.86,7.888 C12.719,6.68 13.242,5.301 13.429,3.751 L9.304,3.751 L9.418,0.501 L23.418,0.501 Z M19.43,12.326 L14.455,12.326 L14.223,18.976 L19.198,18.976 L19.43,12.326 Z"></path></clipPath><clipPath id="i14"><path d="M18.045,0 C17.974,0.617 17.853,1.441 17.683,2.475 L23.634,2.475 L23.52,5.724 L22.596,5.724 C22.424,7.292 22.186,8.834 21.884,10.35 C21.467,12.249 20.956,13.999 20.35,15.599 L23.058,22.524 L19.833,22.524 L18.413,18.824 C17.931,19.742 17.179,20.974 16.159,22.524 L12.433,22.524 L12.412,23.125 L7.452,20.574 C5.434,22.024 2.95,22.757 0,22.775 L0.097,20 C1.865,19.95 3.359,19.65 4.578,19.099 L1.385,17.474 L2.249,15.649 L0.249,15.649 L0.343,12.95 L3.518,12.95 L4.219,11.474 L7.369,11.474 L6.668,12.95 L13.193,12.95 L13.099,15.649 L11.399,15.649 C10.841,16.817 10.214,17.816 9.519,18.649 L12.514,20.224 L12.445,22.199 C14.07,20.034 15.348,18.058 16.277,16.275 L14.594,10.774 L12.719,10.774 L12.975,11.299 L10.176,11.299 C9.603,10.033 9.208,8.692 8.991,7.275 L8.291,7.275 L8.158,11.099 L5.257,11.099 L5.391,7.275 L4.716,7.275 C4.364,8.775 3.875,10.117 3.25,11.299 L0.426,11.299 C1.152,10.066 1.715,8.725 2.116,7.275 L0.541,7.275 L0.641,4.424 L5.491,4.424 L5.637,0.224 L8.537,0.224 L8.391,4.424 L13.241,4.424 L13.141,7.275 L11.566,7.275 C11.794,8.375 12.117,9.391 12.535,10.325 C13.681,7.091 14.493,3.65 14.97,0 L18.045,0 Z M8.349,15.649 L5.399,15.649 L5.075,16.325 L7.063,17.375 C7.513,16.909 7.941,16.334 8.349,15.649 Z M19.695,5.724 L17.07,5.724 L16.688,7.374 L18.12,12.899 C18.824,10.882 19.349,8.492 19.695,5.724 Z M12.779,0.474 L11.712,3.825 L8.986,3.825 L10.029,0.474 L12.779,0.474 Z M4.103,0.474 L4.962,3.825 L2.212,3.825 L1.378,0.474 L4.103,0.474 Z"></path></clipPath><clipPath id="i15"><path d="M13.442,0 L13.39,1.475 L22.716,1.475 L22.526,6.9 L19.501,6.9 C18.321,8.718 16.932,10.543 15.335,12.375 L22.635,12.375 L22.525,15.525 L13.9,15.525 L13.638,23.001 L6.564,23.001 L6.675,19.825 L10.45,19.825 L10.6,15.525 L0,15.525 L0.11,12.375 L11.435,12.375 C12.351,11.409 13.149,10.534 13.826,9.75 L3.527,9.75 L3.626,6.9 L0.576,6.9 L0.765,1.475 L10.091,1.475 L10.142,0 L13.442,0 Z M19.357,4.575 L3.907,4.575 L3.833,6.7 L19.283,6.7 L19.357,4.575 Z"></path></clipPath><clipPath id="i16"><path d="M21.36,0 L20.895,13.325 L23.386,12.825 L23.27,16.175 L20.777,16.675 L20.566,22.726 L17.316,22.726 L17.506,17.3 L10.532,18.675 L10.65,15.324 L17.623,13.95 L18.11,0 L21.36,0 Z M10.21,0 L10.102,3.075 C8.963,3.259 8.167,3.375 7.715,3.425 L7.629,5.875 L10.479,5.875 L10.373,8.925 L7.523,8.925 L7.456,10.825 L10.209,12.2 L10.084,15.776 L7.332,14.401 L7.041,22.726 L4.016,22.726 L4.498,8.925 L0.723,8.925 L0.829,5.875 L4.429,5.875 L4.506,3.7 C3.437,3.75 2.344,3.776 1.228,3.776 L1.335,0.725 C4.001,0.725 6.959,0.485 10.21,0 Z M3.783,10.075 C3.633,14.375 3.196,18.267 2.475,21.75 L0,21.75 C0.815,17.985 1.293,14.092 1.433,10.075 L3.783,10.075 Z M11.162,7.1 L16.151,8.85 L16.041,11.975 L11.052,10.225 L11.162,7.1 Z M12.36,1.425 L17.349,3.175 L17.239,6.3 L12.251,4.55 L12.36,1.425 Z"></path></clipPath><clipPath id="i17"><path d="M18.056,0.126 L17.986,2.15 L23.186,2.15 L23.079,5.2 L17.879,5.2 L17.762,8.551 L22.663,8.551 C22.198,11.817 20.588,14.725 17.833,17.275 C19.343,18.425 20.84,19.2 22.327,19.6 L22.21,22.926 C19.351,21.775 17.085,20.533 15.416,19.2 C13.279,20.7 10.83,21.883 8.066,22.751 L8.183,19.426 C10.093,18.658 11.746,17.843 13.143,16.974 C11.386,14.792 10.234,11.983 9.688,8.551 L14.563,8.551 L14.679,5.2 L9.629,5.2 L9.736,2.15 L14.786,2.15 L14.856,0.126 L18.056,0.126 Z M6.386,0 L6.265,3.475 L8.64,3.475 L8.529,6.626 L6.154,6.626 L6.019,10.5 L8.666,9.876 L8.545,13.35 L5.898,13.975 L5.596,22.626 L0.421,22.626 L0.527,19.6 L2.452,19.6 L2.622,14.725 L0,15.349 L0.121,11.876 L2.743,11.25 L2.904,6.626 L0.555,6.626 L0.665,3.475 L3.015,3.475 L3.136,0 L6.386,0 Z M18.636,11.45 L13.312,11.45 C13.8,12.734 14.564,13.983 15.605,15.2 C16.946,14.016 17.957,12.767 18.636,11.45 Z"></path></clipPath><clipPath id="i18"><path d="M7.83718665,0 L7.83718665,23.3576 L0,23.3576 L0,0 L7.83718665,0 Z"></path></clipPath><clipPath id="i19"><path d="M7.83718665,0 C6.57918665,2.06 5.62018665,4.051 4.96018665,5.973 C4.29918665,7.895 3.93518665,9.797 3.86818665,11.679 C3.79918665,13.578 4.02718665,15.482 4.55018665,17.396 C5.07318665,19.31 5.88918665,21.298 6.99818665,23.358 L3.34818665,23.358 C2.18418665,21.412 1.32018665,19.502 0.754186651,17.629 C0.187186651,15.754 -0.0598133491,13.82 0.0121866509,11.825 C0.0841866509,9.814 0.470186651,7.871 1.17118665,5.997 C1.87218665,4.125 2.87718665,2.126 4.18618665,0 L7.83718665,0 Z"></path></clipPath><clipPath id="i20"><path d="M9.631,0 L9.579,1.475 L14.929,1.475 L14.98,0 L18.23,0 L18.179,1.475 L23.154,1.475 L23.045,4.6 L18.07,4.6 L18.024,5.924 L14.774,5.924 L14.82,4.6 L9.47,4.6 L9.441,5.425 L11.016,5.425 L10.957,7.126 L18.482,7.126 L17.931,22.876 L10.632,22.876 L10.743,19.675 L14.844,19.675 L15.175,10.175 L10.85,10.175 C10.731,12.625 10.32,14.85 9.617,16.85 C8.914,18.849 7.802,20.858 6.282,22.876 L2.032,22.876 C3.987,20.825 5.382,18.816 6.217,16.85 C7.053,14.883 7.53,12.659 7.651,10.175 L2.25,10.175 L2.357,7.126 L7.757,7.126 L7.799,5.924 L6.174,5.924 L6.22,4.6 L1.245,4.6 L1.354,1.475 L6.329,1.475 L6.381,0 L9.631,0 Z M22.345,8.9 C22.888,12.417 23.175,16.376 23.205,20.775 L20.105,20.775 C20.073,16.925 19.786,12.966 19.245,8.9 L22.345,8.9 Z M5.898,10.95 C5.24,14.049 4.316,16.9 3.125,19.5 L0,19.5 C1.28,16.717 2.254,13.867 2.923,10.95 L5.898,10.95 Z"></path></clipPath><clipPath id="i21"><path d="M7.8,0 L7.418,10.949 C7.344,13.05 7.112,15.042 6.722,16.924 C6.331,18.808 5.761,20.666 5.014,22.5 L1.289,22.5 C2.237,20.666 2.943,18.816 3.408,16.949 C3.874,15.083 4.143,13.083 4.217,10.949 L4.575,0 L7.8,0 Z M22.425,0 L21.641,22.449 L18.441,22.449 L19.2,0 L22.425,0 Z M15.107,0.524 L14.387,21.149 L11.212,21.149 L11.907,0.524 L15.107,0.524 Z M17.739,5.325 L18.225,14.324 L15.875,14.324 L15.389,5.325 L17.739,5.325 Z M10.464,5.325 L10.95,14.324 L8.6,14.324 L8.114,5.325 L10.464,5.325 Z M3.815,5.325 L2.5,14.324 L0,14.324 L1.315,5.325 L3.815,5.325 Z"></path></clipPath><clipPath id="i22"><path d="M7.82618809,0 L7.82618809,23.3576 L0,23.3576 L0,0 L7.82618809,0 Z"></path></clipPath><clipPath id="i23"><path d="M4.488,0 C5.645,2.126 6.507,4.125 7.073,5.997 C7.639,7.871 7.886,9.814 7.814,11.825 C7.742,13.82 7.356,15.754 6.655,17.629 C5.955,19.502 4.953,21.412 3.65,23.358 L0,23.358 C1.257,21.298 2.216,19.31 2.876,17.396 C3.537,15.482 3.901,13.578 3.969,11.679 C4.037,9.797 3.809,7.895 3.286,5.973 C2.763,4.051 1.947,2.06 0.838,0 L4.488,0 Z"></path></clipPath><clipPath id="i24"><path d="M10.652,0 C10.565,0.584 10.426,1.234 10.235,1.95 L23.41,1.95 L23.299,5.101 L9.199,5.101 C8.998,5.617 8.736,6.192 8.414,6.825 L21.589,6.825 L21.02,23.126 L17.82,23.126 L17.928,20.026 L6.753,20.026 L6.645,23.126 L3.445,23.126 L3.797,13.051 C2.642,14.151 1.376,15.084 0,15.85 L0.143,11.751 C2.621,9.967 4.49,7.75 5.75,5.101 L0.799,5.101 L0.91,1.95 L6.985,1.95 C7.195,1.167 7.359,0.518 7.478,0 L10.652,0 Z M18.105,14.976 L6.93,14.976 L6.86,16.976 L18.036,16.951 L18.105,14.976 Z M18.281,9.926 L7.106,9.926 L7.036,11.926 L18.211,11.926 L18.281,9.926 Z"></path></clipPath><clipPath id="i25"><path d="M22.005,0 L21.584,12.05 L16.709,12.05 C16.935,13.7 17.479,15.083 18.339,16.2 L20.011,12.7 L22.886,12.7 L20.972,16.699 L18.771,16.699 C19.702,17.734 20.933,18.517 22.465,19.05 L22.341,22.601 C19.621,21.734 17.536,20.359 16.084,18.475 C14.634,16.592 13.792,14.45 13.559,12.05 L12.359,12.05 L12.111,19.151 L14.436,19.151 L14.324,22.351 L8.824,22.351 L9.605,0 L22.005,0 Z M9.102,0.101 C9.038,1.917 8.863,3.571 8.579,5.063 C8.292,6.555 7.856,8.068 7.27,9.601 C8.095,11.267 8.477,12.976 8.416,14.726 C8.356,16.426 7.881,18.084 6.992,19.7 L3.642,19.7 C4.222,18.85 4.655,18.022 4.941,17.213 C5.228,16.404 5.386,15.575 5.416,14.726 C5.445,13.875 5.345,13.047 5.115,12.237 C4.885,11.43 4.51,10.592 3.99,9.726 C4.849,7.559 5.432,5.416 5.74,3.3 L3.815,3.3 L3.149,22.351 L0,22.351 L0.776,0.101 L9.102,0.101 Z M18.543,7.5 L12.518,7.5 L12.466,9 L18.491,9 L18.543,7.5 Z M18.699,3.05 L12.674,3.05 L12.621,4.55 L18.646,4.55 L18.699,3.05 Z"></path></clipPath><clipPath id="i26"><path d="M14.053,7.55 L7.982,19.601 L16.957,19.601 L15.539,15.825 L19.239,15.825 L21.871,22.801 L1.145,22.801 L1.257,19.601 L4.207,19.601 L10.278,7.55 L14.053,7.55 Z M18.392,0 C18.85,2.15 19.495,4.23 20.324,6.237 C21.154,8.246 22.263,10.384 23.65,12.65 L19.5,12.65 C18.356,10.567 17.416,8.509 16.679,6.476 C15.941,4.441 15.354,2.284 14.917,0 L18.392,0 Z M9.617,0 C9.02,2.284 8.283,4.441 7.403,6.476 C6.524,8.509 5.439,10.567 4.15,12.65 L0,12.65 C1.546,10.384 2.804,8.246 3.774,6.237 C4.745,4.23 5.533,2.15 6.142,0 L9.617,0 Z"></path></clipPath><clipPath id="i27"><path d="M22.5,0 L21.726,22.175 L16.076,22.175 L16.188,18.975 L18.637,18.975 L19.188,3.199 L1.563,3.199 L1.675,0 L22.5,0 Z M15.82,9.449 L15.455,19.899 L1.205,19.899 L1.57,9.449 L15.82,9.449 Z M12.51,12.6 L4.66,12.6 L4.515,16.749 L12.365,16.749 L12.51,12.6 Z M17.608,4.8 L17.5,7.874 L0,7.874 L0.108,4.8 L17.608,4.8 Z"></path></clipPath><clipPath id="i28"><path d="M15.436,0 C15.598,0 15.629,0.23 15.473,0.273 L0.353,4.459 C0.175,4.507 0,4.375 0,4.19 L0,0.278 C0,0.125 0.125,0 0.278,0 L15.436,0 Z"></path></clipPath></defs><g transform="translate(142.3 0.0)"><g transform="translate(192.28330000000005 39.05959999999999)"><text transform="translate(0.0 25.0)" font-family="PingFangSC-Regular, PingFang SC" font-size="23.652" font-weight="normal" fill="#FFFFFF">为匹配企业数字化需求而生</text></g><g transform="translate(196.2990115000733 1.0)"><g clip-path="url(#i0)"><polygon points="-0.000969163949,0 102.300988,0 102.300988,35.4 -0.000969163949,35.4 -0.000969163949,0" stroke="none" fill="#E3263B"></polygon></g></g><g transform="translate(205.74380000000002 3.968800000000016)"><text transform="translate(0.0 26.0)" font-family="Helvetica" font-size="27.594" font-weight="normal" fill="#FFFFFF">10</text></g><g transform="translate(239.6149 4.055700000000002)"><text transform="translate(0.0 25.0)" font-family="PingFangSC-Regular, PingFang SC" font-size="23.652" font-weight="normal" fill="#FFFFFF">年</text></g><g transform="translate(265.3956000000001 3.7309999999999945)"><text transform="translate(0.0 26.0)" font-family="Helvetica" font-size="27.594" font-weight="normal" fill="#FFFFFF">+</text></g></g><g transform="translate(0.0 3.0)"><g transform="translate(170.1041 8.26830000000001)"><g clip-path="url(#i1)"><polygon points="0,0 24.354,0 24.354,25.275 0,25.275 0,0" stroke="none" fill="#FFFFFF"></polygon></g></g><g transform="translate(198.2659 15.67410000000001)"><g clip-path="url(#i2)"><polygon points="0,0 17.428,0 17.428,18.238 0,18.238 0,0" stroke="none" fill="#FFFFFF"></polygon></g></g><g transform="translate(216.9688463738335 16.11590000000001)"><g clip-path="url(#i3)"><polygon points="1.24942164e-14,0 17.233195,0 17.233195,17.538 1.24942164e-14,17.538 1.24942164e-14,0" stroke="none" fill="#FFFFFF"></polygon></g></g><g transform="translate(244.7996 12.486740725271941)"><g clip-path="url(#i4)"><polygon points="0,1.82766626e-16 9.98653952,1.82766626e-16 9.98653952,21.4253593 0,21.4253593 0,1.82766626e-16" stroke="none" fill="#FFFFFF"></polygon></g></g><g transform="translate(256.6252 15.674499999999993)"><g clip-path="url(#i5)"><polygon points="0,0 15.585,0 15.585,18.237 0,18.237 0,0" stroke="none" fill="#FFFFFF"></polygon></g></g><g transform="translate(274.7513 15.6747)"><g clip-path="url(#i6)"><polygon points="0,0 14.7051132,0 14.7051132,18.237 0,18.237 0,0" stroke="none" fill="#FFFFFF"></polygon></g></g><g transform="translate(292.2137 8.361816857431561)"><g clip-path="url(#i7)"><polygon points="0,-2.61047546e-15 15.733,-2.61047546e-15 15.733,25.1816831 0,25.1816831 0,-2.61047546e-15" stroke="none" fill="#FFFFFF"></polygon></g></g><g transform="translate(236.7293 14.88475595760167)"><g clip-path="url(#i8)"><polygon points="0,-7.39005406e-16 4.421,-7.39005406e-16 4.421,18.658744 0,18.658744 0,-7.39005406e-16" stroke="none" fill="#FFFFFF"></polygon></g></g><g transform="translate(310.2339 0.0)"><g clip-path="url(#i9)"><g transform="translate(0.0 -0.0002999999999957481)"><g clip-path="url(#i10)"><polygon points="0,0.0003 15.2349,0.0003 15.2349,14.511 0,14.511 0,0.0003" stroke="none" fill="#FFFFFF"></polygon></g></g></g></g><g transform="translate(315.3117 3.6277000000000044)"><g clip-path="url(#i11)"><polygon points="0,0 6.53,0 6.53,7.98 0,7.98 0,0" stroke="none" fill="#FFFFFF"></polygon></g></g><g transform="translate(0.0 41.385099999999994)"><g clip-path="url(#i12)"><polygon points="0,0 23.608,0 23.608,22.201 0,22.201 0,0" stroke="none" fill="#FFFFFF"></polygon></g></g><g transform="translate(25.02399999999999 41.109700000000004)"><g clip-path="url(#i13)"><polygon points="0,0 23.418,0 23.418,22.626 0,22.626 0,0" stroke="none" fill="#FFFFFF"></polygon></g></g><g transform="translate(49.0697 40.96109999999999)"><g clip-path="url(#i14)"><polygon points="0,0 23.634,0 23.634,23.125 0,23.125 0,0" stroke="none" fill="#FFFFFF"></polygon></g></g><g transform="translate(73.8809 40.735299999999995)"><g clip-path="url(#i15)"><polygon points="0,0 22.716,0 22.716,23.001 0,23.001 0,0" stroke="none" fill="#FFFFFF"></polygon></g></g><g transform="translate(97.8698 41.2603)"><g clip-path="url(#i16)"><polygon points="0,0 23.386,0 23.386,22.726 0,22.726 0,0" stroke="none" fill="#FFFFFF"></polygon></g></g><g transform="translate(122.52370000000002 41.110299999999995)"><g clip-path="url(#i17)"><polygon points="0,0 23.186,0 23.186,22.926 0,22.926 0,0" stroke="none" fill="#FFFFFF"></polygon></g></g><g transform="translate(147.6086133491048 41.282399999999996)"><g clip-path="url(#i18)"><g clip-path="url(#i19)"><polygon points="1.16268098e-14,0 7.83718665,0 7.83718665,23.3576 1.16268098e-14,23.3576 1.16268098e-14,0" stroke="none" fill="#FFFFFF"></polygon></g></g></g><g transform="translate(155.7627 40.8605)"><g clip-path="url(#i20)"><polygon points="0,0 23.205,0 23.205,22.876 0,22.876 0,0" stroke="none" fill="#FFFFFF"></polygon></g></g><g transform="translate(180.255 41.23609999999999)"><g clip-path="url(#i21)"><polygon points="0,0 22.425,0 22.425,22.5 0,22.5 0,0" stroke="none" fill="#FFFFFF"></polygon></g></g><g transform="translate(204.25709999999998 41.282399999999996)"><g transform=""><g clip-path="url(#i22)"><g transform=""><g transform=""><g clip-path="url(#i23)"><polygon points="0,0 7.82618809,0 7.82618809,23.3576 0,23.3576 0,0" stroke="none" fill="#FFFFFF"></polygon></g></g></g></g></g></g><g transform="translate(213.8699 40.73490000000001)"><g clip-path="url(#i24)"><polygon points="0,0 23.41,0 23.41,23.126 0,23.126 0,0" stroke="none" fill="#FFFFFF"></polygon></g></g><g transform="translate(238.8948 41.3853)"><g clip-path="url(#i25)"><polygon points="0,0 22.886,0 22.886,22.601 0,22.601 0,0" stroke="none" fill="#FFFFFF"></polygon></g></g><g transform="translate(262.5805 40.73509999999999)"><g clip-path="url(#i26)"><polygon points="0,0 23.65,0 23.65,22.801 0,22.801 0,0" stroke="none" fill="#FFFFFF"></polygon></g></g><g transform="translate(287.4185 41.56130000000002)"><g clip-path="url(#i27)"><polygon points="0,0 22.5,0 22.5,22.175 0,22.175 0,0" stroke="none" fill="#FFFFFF"></polygon></g></g></g><g transform="translate(234.73860000000002 11.268699999999995)"><g clip-path="url(#i28)"><polygon points="0,0 15.5751048,0 15.5751048,4.46892452 0,4.46892452 0,0" stroke="none" fill="#D62A39"></polygon></g></g></svg>